<?xml version="1.0" encoding="UTF-8" standalone="no"?>
<!DOCTYPE svg PUBLIC "-//W3C//DTD SVG 1.1//EN"
 "http://www.w3.org/Graphics/SVG/1.1/DTD/svg11.dtd">
<!-- Generated by graphviz version 2.38.0 (20140413.2041)
 -->
<!-- Title: SwitchingWidget Pages: 1 -->
<svg width="113pt" height="160pt"
 viewBox="0.00 0.00 113.00 160.00" xmlns="http://www.w3.org/2000/svg" xmlns:xlink="http://www.w3.org/1999/xlink">
<g id="graph0" class="graph" transform="scale(1 1) rotate(0) translate(4 156)">
<title>SwitchingWidget</title>
<polygon fill="white" stroke="none" points="-4,4 -4,-156 109,-156 109,4 -4,4"/>
<!-- Node1 -->
<g id="node1" class="node"><title>Node1</title>
<polygon fill="#bfbfbf" stroke="black" points="0,-0.5 0,-57.5 105,-57.5 105,-0.5 0,-0.5"/>
<text text-anchor="middle" x="52.5" y="-45.5" font-family="Helvetica,sans-Serif" font-size="10.00">SwitchingWidget</text>
<polyline fill="none" stroke="black" points="0,-38.5 105,-38.5 "/>
<text text-anchor="middle" x="52.5" y="-26.5" font-family="Helvetica,sans-Serif" font-size="10.00"> </text>
<polyline fill="none" stroke="black" points="0,-19.5 105,-19.5 "/>
<text text-anchor="start" x="8" y="-7.5" font-family="Helvetica,sans-Serif" font-size="10.00">+ SwitchingWidget()</text>
</g>
<!-- Node2 -->
<g id="node2" class="node"><title>Node2</title>
<polygon fill="white" stroke="#bfbfbf" points="25,-94.5 25,-151.5 80,-151.5 80,-94.5 25,-94.5"/>
<text text-anchor="middle" x="52.5" y="-139.5" font-family="Helvetica,sans-Serif" font-size="10.00">QSplitter</text>
<polyline fill="none" stroke="#bfbfbf" points="25,-132.5 80,-132.5 "/>
<text text-anchor="middle" x="52.5" y="-120.5" font-family="Helvetica,sans-Serif" font-size="10.00"> </text>
<polyline fill="none" stroke="#bfbfbf" points="25,-113.5 80,-113.5 "/>
<text text-anchor="middle" x="52.5" y="-101.5" font-family="Helvetica,sans-Serif" font-size="10.00"> </text>
</g>
<!-- Node2&#45;&gt;Node1 -->
<g id="edge1" class="edge"><title>Node2&#45;&gt;Node1</title>
<path fill="none" stroke="midnightblue" d="M52.5,-84.2092C52.5,-75.2929 52.5,-65.9513 52.5,-57.5836"/>
<polygon fill="none" stroke="midnightblue" points="49.0001,-84.3969 52.5,-94.397 56.0001,-84.397 49.0001,-84.3969"/>
</g>
</g>
</svg>
