<?xml version="1.0" encoding="UTF-8" standalone="no"?>
<!DOCTYPE svg PUBLIC "-//W3C//DTD SVG 1.1//EN"
 "http://www.w3.org/Graphics/SVG/1.1/DTD/svg11.dtd">
<!-- Generated by graphviz version 2.38.0 (20140413.2041)
 -->
<!-- Title: BlendSplitter Pages: 1 -->
<svg width="118pt" height="270pt"
 viewBox="0.00 0.00 118.00 270.00" xmlns="http://www.w3.org/2000/svg" xmlns:xlink="http://www.w3.org/1999/xlink">
<g id="graph0" class="graph" transform="scale(1 1) rotate(0) translate(4 266)">
<title>BlendSplitter</title>
<polygon fill="white" stroke="none" points="-4,4 -4,-266 114,-266 114,4 -4,4"/>
<!-- Node2 -->
<g id="node1" class="node"><title>Node2</title>
<polygon fill="#bfbfbf" stroke="black" points="0,-0.5 0,-167.5 110,-167.5 110,-0.5 0,-0.5"/>
<text text-anchor="middle" x="55" y="-155.5" font-family="Helvetica,sans-Serif" font-size="10.00">BlendSplitter</text>
<polyline fill="none" stroke="black" points="0,-148.5 110,-148.5 "/>
<text text-anchor="start" x="8" y="-136.5" font-family="Helvetica,sans-Serif" font-size="10.00">+ expanderSize</text>
<text text-anchor="start" x="8" y="-125.5" font-family="Helvetica,sans-Serif" font-size="10.00">+ switchingBarHeight</text>
<text text-anchor="start" x="8" y="-114.5" font-family="Helvetica,sans-Serif" font-size="10.00">+ expanderImage</text>
<polyline fill="none" stroke="black" points="0,-107.5 110,-107.5 "/>
<text text-anchor="start" x="8" y="-95.5" font-family="Helvetica,sans-Serif" font-size="10.00">+ BlendSplitter()</text>
<text text-anchor="start" x="8" y="-84.5" font-family="Helvetica,sans-Serif" font-size="10.00">+ addWidget()</text>
<text text-anchor="start" x="8" y="-73.5" font-family="Helvetica,sans-Serif" font-size="10.00">+ addWidget()</text>
<text text-anchor="start" x="8" y="-62.5" font-family="Helvetica,sans-Serif" font-size="10.00">+ addWidget()</text>
<text text-anchor="start" x="8" y="-51.5" font-family="Helvetica,sans-Serif" font-size="10.00">+ insertWidget()</text>
<text text-anchor="start" x="8" y="-40.5" font-family="Helvetica,sans-Serif" font-size="10.00">+ insertWidget()</text>
<text text-anchor="start" x="8" y="-29.5" font-family="Helvetica,sans-Serif" font-size="10.00">+ insertWidget()</text>
<text text-anchor="start" x="8" y="-18.5" font-family="Helvetica,sans-Serif" font-size="10.00">+ addSplitter()</text>
<text text-anchor="start" x="8" y="-7.5" font-family="Helvetica,sans-Serif" font-size="10.00">+ insertSplitter()</text>
</g>
<!-- Node3 -->
<g id="node2" class="node"><title>Node3</title>
<polygon fill="white" stroke="#bfbfbf" points="27.5,-204.5 27.5,-261.5 82.5,-261.5 82.5,-204.5 27.5,-204.5"/>
<text text-anchor="middle" x="55" y="-249.5" font-family="Helvetica,sans-Serif" font-size="10.00">QSplitter</text>
<polyline fill="none" stroke="#bfbfbf" points="27.5,-242.5 82.5,-242.5 "/>
<text text-anchor="middle" x="55" y="-230.5" font-family="Helvetica,sans-Serif" font-size="10.00"> </text>
<polyline fill="none" stroke="#bfbfbf" points="27.5,-223.5 82.5,-223.5 "/>
<text text-anchor="middle" x="55" y="-211.5" font-family="Helvetica,sans-Serif" font-size="10.00"> </text>
</g>
<!-- Node3&#45;&gt;Node2 -->
<g id="edge1" class="edge"><title>Node3&#45;&gt;Node2</title>
<path fill="none" stroke="midnightblue" d="M55,-194.35C55,-186.08 55,-177.008 55,-167.738"/>
<polygon fill="none" stroke="midnightblue" points="51.5001,-194.35 55,-204.35 58.5001,-194.35 51.5001,-194.35"/>
</g>
</g>
</svg>
