<?xml version="1.0" encoding="UTF-8" standalone="no"?>
<!DOCTYPE svg PUBLIC "-//W3C//DTD SVG 1.1//EN"
 "http://www.w3.org/Graphics/SVG/1.1/DTD/svg11.dtd">
<!-- Generated by graphviz version 2.38.0 (20140413.2041)
 -->
<!-- Title: SwitchingWidget Pages: 1 -->
<svg width="116pt" height="171pt"
 viewBox="0.00 0.00 116.00 171.00" xmlns="http://www.w3.org/2000/svg" xmlns:xlink="http://www.w3.org/1999/xlink">
<g id="graph0" class="graph" transform="scale(1 1) rotate(0) translate(4 167)">
<title>SwitchingWidget</title>
<polygon fill="white" stroke="none" points="-4,4 -4,-167 112,-167 112,4 -4,4"/>
<!-- Node2 -->
<g id="node1" class="node"><title>Node2</title>
<polygon fill="#bfbfbf" stroke="black" points="0,-0.5 0,-68.5 108,-68.5 108,-0.5 0,-0.5"/>
<text text-anchor="middle" x="54" y="-56.5" font-family="Helvetica,sans-Serif" font-size="10.00">SwitchingWidget</text>
<polyline fill="none" stroke="black" points="0,-49.5 108,-49.5 "/>
<text text-anchor="middle" x="54" y="-37.5" font-family="Helvetica,sans-Serif" font-size="10.00"> </text>
<polyline fill="none" stroke="black" points="0,-30.5 108,-30.5 "/>
<text text-anchor="start" x="8" y="-18.5" font-family="Helvetica,sans-Serif" font-size="10.00">+ SwitchingWidget()</text>
<text text-anchor="start" x="8" y="-7.5" font-family="Helvetica,sans-Serif" font-size="10.00">+ setCurrentWidget()</text>
</g>
<!-- Node3 -->
<g id="node2" class="node"><title>Node3</title>
<polygon fill="white" stroke="#bfbfbf" points="26.5,-105.5 26.5,-162.5 81.5,-162.5 81.5,-105.5 26.5,-105.5"/>
<text text-anchor="middle" x="54" y="-150.5" font-family="Helvetica,sans-Serif" font-size="10.00">QSplitter</text>
<polyline fill="none" stroke="#bfbfbf" points="26.5,-143.5 81.5,-143.5 "/>
<text text-anchor="middle" x="54" y="-131.5" font-family="Helvetica,sans-Serif" font-size="10.00"> </text>
<polyline fill="none" stroke="#bfbfbf" points="26.5,-124.5 81.5,-124.5 "/>
<text text-anchor="middle" x="54" y="-112.5" font-family="Helvetica,sans-Serif" font-size="10.00"> </text>
</g>
<!-- Node3&#45;&gt;Node2 -->
<g id="edge1" class="edge"><title>Node3&#45;&gt;Node2</title>
<path fill="none" stroke="midnightblue" d="M54,-95.0631C54,-86.3933 54,-77.2431 54,-68.7855"/>
<polygon fill="none" stroke="midnightblue" points="50.5001,-95.3212 54,-105.321 57.5001,-95.3212 50.5001,-95.3212"/>
</g>
</g>
</svg>
