<?xml version="1.0" encoding="UTF-8" standalone="no"?>
<!DOCTYPE svg PUBLIC "-//W3C//DTD SVG 1.1//EN"
 "http://www.w3.org/Graphics/SVG/1.1/DTD/svg11.dtd">
<!-- Generated by graphviz version 2.38.0 (20140413.2041)
 -->
<!-- Title: SwitchingBar Pages: 1 -->
<svg width="86pt" height="171pt"
 viewBox="0.00 0.00 86.00 171.00" xmlns="http://www.w3.org/2000/svg" xmlns:xlink="http://www.w3.org/1999/xlink">
<g id="graph0" class="graph" transform="scale(1 1) rotate(0) translate(4 167)">
<title>SwitchingBar</title>
<polygon fill="white" stroke="none" points="-4,4 -4,-167 82,-167 82,4 -4,4"/>
<!-- Node0 -->
<g id="node1" class="node"><title>Node0</title>
<polygon fill="#bfbfbf" stroke="black" points="0,-0.5 0,-68.5 78,-68.5 78,-0.5 0,-0.5"/>
<text text-anchor="middle" x="39" y="-56.5" font-family="Helvetica,sans-Serif" font-size="10.00">SwitchingBar</text>
<polyline fill="none" stroke="black" points="0,-49.5 78,-49.5 "/>
<text text-anchor="middle" x="39" y="-37.5" font-family="Helvetica,sans-Serif" font-size="10.00"> </text>
<polyline fill="none" stroke="black" points="0,-30.5 78,-30.5 "/>
<text text-anchor="start" x="8" y="-18.5" font-family="Helvetica,sans-Serif" font-size="10.00">+ addMenu()</text>
<text text-anchor="start" x="8" y="-7.5" font-family="Helvetica,sans-Serif" font-size="10.00">+ addWidget()</text>
</g>
<!-- Node1 -->
<g id="node2" class="node"><title>Node1</title>
<polygon fill="white" stroke="#bfbfbf" points="11.5,-105.5 11.5,-162.5 66.5,-162.5 66.5,-105.5 11.5,-105.5"/>
<text text-anchor="middle" x="39" y="-150.5" font-family="Helvetica,sans-Serif" font-size="10.00">QWidget</text>
<polyline fill="none" stroke="#bfbfbf" points="11.5,-143.5 66.5,-143.5 "/>
<text text-anchor="middle" x="39" y="-131.5" font-family="Helvetica,sans-Serif" font-size="10.00"> </text>
<polyline fill="none" stroke="#bfbfbf" points="11.5,-124.5 66.5,-124.5 "/>
<text text-anchor="middle" x="39" y="-112.5" font-family="Helvetica,sans-Serif" font-size="10.00"> </text>
</g>
<!-- Node1&#45;&gt;Node0 -->
<g id="edge1" class="edge"><title>Node1&#45;&gt;Node0</title>
<path fill="none" stroke="midnightblue" d="M39,-95.0631C39,-86.3933 39,-77.2431 39,-68.7855"/>
<polygon fill="none" stroke="midnightblue" points="35.5001,-95.3212 39,-105.321 42.5001,-95.3212 35.5001,-95.3212"/>
</g>
</g>
</svg>
